HIERARCHY
ROOT root
{
	OFFSET 0.000000 0.000000 0.000000
	CHANNELS 6 Xposition Yposition Zposition Zrotation Yrotation Xrotation
	JOINT lhip
	{
		OFFSET 0.058581 -0.082280 -0.017664
		CHANNELS 3 Zrotation Yrotation Xrotation
		JOINT lknee
		{
			OFFSET 0.043451 -0.386469 0.008037
			CHANNELS 3 Zrotation Yrotation Xrotation
			JOINT lankle
			{
				OFFSET -0.014790 -0.426874 -0.037428
				CHANNELS 3 Zrotation Yrotation Xrotation
				JOINT ltoe
				{
					OFFSET 0.041054 -0.060286 0.122042
					CHANNELS 3 Zrotation Yrotation Xrotation
					End Site
					{
						OFFSET 0.000000 0.000000 0.000000
					}
				}
			}
		}
	}
	JOINT rhip
	{
		OFFSET -0.060310 -0.090513 -0.013543
		CHANNELS 3 Zrotation Yrotation Xrotation
		JOINT rknee
		{
			OFFSET -0.043257 -0.383688 -0.004843
			CHANNELS 3 Zrotation Yrotation Xrotation
			JOINT rankle
			{
				OFFSET 0.019056 -0.420046 -0.034562
				CHANNELS 3 Zrotation Yrotation Xrotation
				JOINT rtoe
				{
					OFFSET -0.034840 -0.062106 0.130323
					CHANNELS 3 Zrotation Yrotation Xrotation
					End Site
					{
						OFFSET 0.000000 0.000000 0.000000
					}
				}
			}
		}
	}
	JOINT lowerback
	{
		OFFSET 0.004439 0.124404 -0.038385
		CHANNELS 3 Zrotation Yrotation Xrotation
		JOINT upperback
		{
			OFFSET 0.004488 0.137956 0.026820
			CHANNELS 3 Zrotation Yrotation Xrotation
			JOINT chest
			{
				OFFSET -0.002265 0.056032 0.002855
				CHANNELS 3 Zrotation Yrotation Xrotation
				JOINT lowerneck
				{
					OFFSET -0.013390 0.211636 -0.033468
					CHANNELS 3 Zrotation Yrotation Xrotation
					JOINT upperneck
					{
						OFFSET 0.010113 0.088937 0.050410
						CHANNELS 3 Zrotation Yrotation Xrotation
						End Site
						{
							OFFSET 0.000000 0.000000 0.000000
						}
					}
				}
				JOINT lclavicle
				{
					OFFSET 0.071702 0.114000 -0.018898
					CHANNELS 3 Zrotation Yrotation Xrotation
					JOINT lshoulder
					{
						OFFSET 0.122921 0.045205 -0.019046
						CHANNELS 3 Zrotation Yrotation Xrotation
						JOINT lelbow
						{
							OFFSET 0.255332 -0.015649 -0.022946
							CHANNELS 3 Zrotation Yrotation Xrotation
							JOINT lwrist
							{
								OFFSET 0.265709 0.012698 -0.007375
								CHANNELS 3 Zrotation Yrotation Xrotation
								End Site
								{
									OFFSET 0.000000 0.000000 0.000000
								}
							}
						}
					}
				}
				JOINT rclavicle
				{
					OFFSET -0.082954 0.112472 -0.023707
					CHANNELS 3 Zrotation Yrotation Xrotation
					JOINT rshoulder
					{
						OFFSET -0.113228 0.046853 -0.008472
						CHANNELS 3 Zrotation Yrotation Xrotation
						JOINT relbow
						{
							OFFSET -0.260127 -0.014369 -0.031269
							CHANNELS 3 Zrotation Yrotation Xrotation
							JOINT rwrist
							{
								OFFSET -0.269108 0.006794 -0.006027
								CHANNELS 3 Zrotation Yrotation Xrotation
								End Site
								{
									OFFSET 0.000000 0.000000 0.000000
								}
							}
						}
					}
				}
			}
		}
	}
}
MOTION
Frames: 15
Frame Time: 0.033333
0.097833 -0.481354 0.794835 -130.564045 -2.297829 101.627530 18.039737 -0.171984 -68.644475 -13.571784 5.468630 62.569309 -0.654400 -6.255738 -15.595028 0.000000 -0.000000 0.000000 -21.260052 -26.234878 -25.683647 -9.225294 -22.647282 89.657068 12.465615 -6.240860 -31.461851 0.000000 -0.000000 0.000000 -2.397689 17.457180 32.672405 -13.128486 -1.800924 -8.642014 -5.626080 -0.333235 -2.293473 -0.509139 26.444757 7.520061 -7.156208 40.416455 -7.608922 -15.843217 -18.779701 0.084554 -30.939292 -0.641480 15.092301 -88.356998 -76.711010 110.619235 16.815370 -20.261967 -23.518669 -12.517204 21.015296 -11.098051 -13.510250 17.359749 -26.788693 -120.080384 51.324295 -129.317315 -21.265442 22.788078 -67.803931 
0.097492 -0.481175 0.794676 -130.801102 -2.210298 101.688467 18.118690 -0.080790 -68.720674 -13.693596 5.408433 62.726240 -0.592564 -5.883088 -15.678498 0.000000 -0.000000 0.000000 -21.117718 -26.072006 -25.944383 -8.934353 -22.583044 89.673140 12.527907 -6.527007 -31.500290 0.000000 -0.000000 0.000000 -2.458318 17.332468 32.229839 -13.016823 -1.698085 -8.522030 -5.643670 -0.209862 -2.117558 -0.438300 26.594825 7.480897 -7.140783 40.428111 -7.467435 -15.853475 -18.668104 0.033413 -30.879681 -0.675870 15.098285 -87.920873 -76.822469 110.379261 16.594361 -20.101997 -23.633491 -12.369035 20.954023 -10.973015 -13.726349 17.260734 -26.900805 -119.701739 51.264515 -128.815696 -21.066575 22.829168 -67.902868 
0.097017 -0.481884 0.794973 -130.915952 -2.268157 101.816434 18.096604 -0.127684 -68.780730 -13.769614 5.528873 62.708854 -0.527411 -5.600292 -15.733724 0.000000 -0.000000 0.000000 -21.148444 -25.899160 -26.250386 -8.825573 -22.540979 89.778089 12.578600 -6.528667 -31.498290 0.000000 -0.000000 0.000000 -2.580067 17.168016 31.866926 -12.952615 -1.588121 -8.552896 -5.620466 -0.211270 -1.895502 -0.344014 26.557920 7.502959 -7.170783 40.556998 -7.445934 -15.978513 -18.723566 0.084584 -31.003494 -0.709307 15.067764 -87.017851 -76.883038 109.174671 17.165143 -19.995013 -23.399100 -12.245468 20.920433 -11.022175 -13.755692 17.208727 -26.942350 -119.442970 51.463447 -128.668320 -21.359378 22.462992 -68.233954 
0.096458 -0.482210 0.795192 -131.119587 -2.264429 101.758076 18.051170 -0.052587 -68.634529 -13.815678 5.525914 62.779225 -0.453633 -5.374005 -15.735750 0.000000 -0.000000 0.000000 -21.132614 -25.826286 -26.387236 -8.623380 -22.259284 89.674587 12.557402 -6.679160 -31.249386 0.000000 -0.000000 0.000000 -2.528035 17.012206 31.796635 -12.891716 -1.497642 -8.553911 -5.567503 -0.191898 -1.822868 -0.311549 26.403014 7.572187 -7.161854 40.670485 -7.301023 -16.239502 -18.677081 0.160840 -30.894922 -0.713242 14.998402 -87.291496 -76.907511 109.722869 17.422333 -19.617015 -23.818270 -12.004021 21.043072 -10.779896 -14.300670 17.016458 -27.148720 -118.968562 51.783013 -128.372034 -22.254582 21.373810 -68.468886 
0.095978 -0.482428 0.795750 -131.494009 -2.208313 101.554896 18.028926 0.165477 -68.242794 -13.449768 5.730832 62.830271 -0.604223 -5.631958 -16.009541 0.000000 -0.000000 0.000000 -20.980471 -25.626822 -26.500345 -8.741658 -21.897609 89.654601 12.559526 -6.720253 -31.319032 0.000000 -0.000000 0.000000 -2.515790 16.847805 32.007959 -12.871748 -1.403289 -8.529599 -5.434104 -0.157102 -1.961521 -0.435389 26.079382 7.682340 -7.247474 40.799887 -7.489567 -16.439426 -18.644165 0.352037 -30.896067 -0.562756 14.776384 -87.298551 -77.073523 109.739071 17.265202 -20.058282 -24.178662 -12.047939 21.211132 -10.746579 -14.163167 16.709446 -26.989550 -118.627102 51.801410 -128.198105 -22.236619 21.530773 -68.572520 
0.095458 -0.483864 0.795950 -131.943300 -2.284016 101.686900 17.879196 0.404613 -68.291482 -13.318562 5.954600 62.830914 -0.718738 -5.455195 -16.264938 0.000000 -0.000000 0.000000 -20.870956 -25.535636 -27.198499 -8.554953 -21.573812 89.646214 12.447744 -7.229946 -31.584029 0.000000 -0.000000 0.000000 -2.437847 16.683903 31.923310 -12.861917 -1.338456 -8.566335 -5.475721 -0.214790 -1.841262 -0.587563 25.743966 7.362201 -7.083610 40.925679 -7.230595 -16.718710 -18.570806 0.356605 -30.834337 -0.437098 14.729429 -87.020204 -77.238052 109.053297 17.631356 -20.071553 -23.500313 -11.823533 21.249861 -10.623633 -14.262333 16.563402 -26.770103 -118.300114 51.586473 -128.396667 -21.471157 21.690433 -68.477870 
0.094675 -0.486792 0.796042 -132.604855 -2.390582 101.988970 17.957884 0.345785 -68.449744 -13.277906 6.279497 62.912988 -0.442708 -5.037080 -16.242552 0.000000 -0.000000 0.000000 -20.832283 -25.282698 -28.311620 -8.419701 -21.316786 89.849825 12.241544 -7.878870 -31.533532 0.000000 -0.000000 0.000000 -2.397875 16.213130 31.471024 -12.857415 -1.192030 -8.446961 -5.632580 -0.244962 -1.625812 -0.479015 25.508073 6.755626 -6.713738 40.528463 -6.379651 -16.801114 -18.214936 0.331759 -30.541971 -0.590804 14.503576 -87.522281 -76.931004 108.990409 17.716957 -20.020818 -22.984589 -11.873453 21.000899 -10.670593 -13.973120 17.093126 -26.642873 -117.744674 51.703545 -127.967577 -22.013002 21.342232 -68.934694 
0.093521 -0.488719 0.796939 -133.790793 -2.191075 101.812242 18.127165 0.677255 -67.811540 -13.027506 6.502513 63.082332 -0.209984 -4.703494 -16.454074 0.000000 -0.000000 0.000000 -20.762661 -24.561748 -28.897122 -8.194513 -20.855910 89.799263 12.067446 -7.904118 -31.332988 0.000000 -0.000000 0.000000 -2.500030 15.867232 31.387798 -12.688338 -0.801618 -8.266568 -5.481326 -0.210809 -1.606204 -0.247173 24.762795 6.610973 -6.374240 39.737483 -5.954154 -17.023805 -17.956263 0.572807 -30.661096 -0.606702 14.293125 -88.934010 -76.957638 110.214345 17.224598 -19.782130 -23.524307 -11.569243 21.076068 -10.671024 -13.709289 17.316270 -26.465842 -117.268440 51.845809 -127.601560 -22.461148 20.997359 -69.164978 
0.091472 -0.491158 0.798461 -135.417799 -2.012051 101.356621 17.985181 1.106235 -66.814011 -12.439743 6.589445 63.378226 -0.425638 -4.323875 -17.061635 0.000000 -0.000000 0.000000 -20.839335 -23.846765 -29.263993 -7.854282 -19.913276 89.555545 11.965899 -7.440618 -30.746314 0.000000 -0.000000 0.000000 -2.556179 15.753632 32.016860 -12.444429 -0.560422 -8.551560 -5.219012 -0.452749 -1.274381 0.328424 23.354012 5.815131 -5.852522 38.300190 -4.999071 -17.169463 -17.369912 0.369307 -31.254159 -0.573305 14.272593 -89.038203 -76.991994 110.475588 17.442246 -19.672915 -23.050887 -11.292313 20.792383 -11.186749 -12.609583 17.885257 -25.593077 -116.742276 51.791289 -127.503953 -22.623826 20.575558 -69.293186 
0.088543 -0.492723 0.800267 -137.720165 -1.627838 100.351334 17.830651 1.943351 -64.946941 -11.801632 6.417891 63.914934 -0.272390 -3.913311 -17.711024 0.000000 -0.000000 0.000000 -20.877202 -23.103838 -28.895095 -7.629148 -18.774601 88.743053 11.676693 -6.788476 -30.447473 0.000000 -0.000000 0.000000 -2.801978 15.792194 32.919457 -12.021456 -0.345466 -8.506291 -4.762695 -0.497826 -1.251169 0.534253 21.081938 5.187017 -4.568595 34.187437 -4.351634 -17.629890 -17.004249 0.657397 -31.520943 -0.247285 14.230341 -90.364128 -77.237868 112.027830 17.910195 -19.171548 -22.381926 -10.339510 20.945401 -11.445525 -10.924494 18.124347 -24.578073 -117.011483 52.079670 -127.721040 -24.194477 19.067455 -69.992755 
0.084570 -0.499067 0.800604 -139.668920 -1.270692 100.122303 17.734874 2.370117 -64.474947 -11.448133 6.474937 64.478105 -0.333173 -3.031461 -18.235890 0.000000 -0.000000 0.000000 -21.253800 -22.905899 -29.512738 -7.031836 -18.291633 88.213738 11.922239 -6.371519 -30.315099 0.000000 -0.000000 0.000000 -2.462599 15.276759 32.856975 -11.301215 -0.604169 -8.388442 -4.797458 -0.527034 -0.263502 0.794287 18.448516 3.487374 -3.141787 28.960450 -3.525539 -17.583395 -16.067144 0.073204 -32.483619 -1.107497 14.493256 -88.220210 -76.720340 109.475407 19.211425 -19.248304 -22.078275 -8.887416 20.370027 -11.606055 -9.398602 18.906384 -23.394778 -116.886031 52.531867 -127.947771 -26.361779 17.820426 -70.608346 
0.080327 -0.507586 0.800075 -141.950415 -0.847315 100.375893 18.199075 2.318742 -64.631207 -10.576561 7.056112 65.350371 -0.329028 -1.770892 -19.076744 0.000000 -0.000000 0.000000 -21.713665 -22.362013 -31.056057 -6.650480 -18.294675 88.255613 11.824269 -5.841378 -30.182793 0.000000 -0.000000 0.000000 -2.289760 14.459508 32.124878 -10.396601 -0.571962 -8.330161 -4.798842 -0.687434 0.680588 1.540136 15.133744 2.013194 -1.964530 23.396485 -2.343956 -17.791504 -14.950522 -0.071971 -33.247562 -2.102805 14.625756 -87.262061 -76.489879 108.547502 18.385117 -19.791744 -21.682741 -7.039186 19.766977 -10.925294 -7.741565 19.780784 -22.059673 -116.578649 53.487646 -127.321431 -27.966560 16.269971 -70.453869 
0.075955 -0.511385 0.801527 -144.648884 -0.503972 99.748729 18.140257 3.188740 -63.213475 -9.920789 7.275926 65.995250 -0.432795 -1.240172 -19.988948 0.000000 -0.000000 0.000000 -21.920717 -22.079391 -31.272088 -6.506949 -17.340873 87.550199 11.627435 -4.539828 -30.084444 0.000000 -0.000000 0.000000 -3.146925 13.962727 32.539481 -9.294986 -0.629550 -8.354177 -4.028551 -0.785621 1.127401 1.729337 12.388265 0.776587 -1.115308 18.015757 -2.848356 -18.500856 -13.953548 -0.228530 -32.986474 -2.422400 14.744502 -88.348345 -76.100183 109.719555 18.760447 -19.651550 -20.704298 -4.376092 19.478531 -10.246316 -6.097314 20.118819 -20.166643 -118.447000 55.521450 -128.452928 -30.166865 14.284254 -69.187813 
0.070594 -0.518309 0.802046 -147.450701 -0.121134 99.445471 18.307393 3.788934 -62.259846 -9.359345 7.715234 66.562048 -0.319902 -0.499912 -20.537841 0.000000 -0.000000 0.000000 -22.158503 -21.777510 -31.900817 -5.522262 -16.595075 86.272800 11.289149 -3.986639 -30.246149 0.000000 -0.000000 0.000000 -3.211478 13.363369 32.907653 -8.226013 -0.804834 -8.262463 -3.536271 -1.019106 1.928002 1.720543 9.726083 -1.432300 -0.745216 13.020875 -2.819984 -18.866664 -12.965225 -0.712659 -33.179287 -3.283199 14.961736 -88.506237 -75.786728 110.265251 17.970450 -19.758123 -20.562032 -2.098498 18.987463 -9.606321 -4.575430 20.013368 -17.535306 -120.924784 57.981489 -129.531535 -31.816314 13.785180 -67.819683 
0.065189 -0.524671 0.802315 -150.261752 0.298916 99.438376 18.501368 4.594549 -61.621295 -9.071337 8.115786 67.065627 0.163265 0.875248 -21.138331 0.000000 -0.000000 0.000000 -22.065088 -21.553774 -32.971632 -4.391963 -15.822318 84.922635 10.907437 -3.937836 -30.383352 0.000000 -0.000000 0.000000 -3.444764 12.775510 32.902404 -6.993799 -1.118946 -7.941072 -2.881505 -1.178124 1.950199 1.595245 6.642812 -2.088435 0.766345 8.381373 -3.309641 -19.457003 -12.439700 -0.113174 -32.685876 -3.728671 14.542391 -89.568968 -75.160353 110.979032 18.062425 -19.261065 -20.114112 0.467086 19.100606 -7.378656 -3.002767 19.178729 -15.184820 -124.953763 60.696476 -131.632178 -33.401044 14.148014 -64.814275 
